<svg xmlns="http://www.w3.org/2000/svg" viewBox="0 0 212 48" width="212" height="48" role="img" aria-label="REBRAPEV">
  <title>REBRAPEV</title>
  <desc>Marca REBRAPEV: rede atômica desordenada, a estrutura característica dos vidros.</desc>
  <style>
    :root { --brand: #145f6b; --accent: #b86234; --text: #26363a; }
    @media (prefers-color-scheme: dark) {
      :root { --brand: #78c6cf; --accent: #e0a079; --text: #eaf0f1; }
    }
    .wordmark {
      font-family: -apple-system, BlinkMacSystemFont, "Segoe UI", Roboto, Helvetica, Arial, sans-serif;
      font-size: 25px;
      font-weight: 760;
      letter-spacing: 0.035em;
      fill: var(--text);
    }
  </style>
  <g transform="translate(1 2) scale(0.9167)">
    <g fill="none" stroke="var(--brand)" stroke-width="2.5" stroke-linecap="round">
      <path d="M21.12 8.16L32.64 14.88M32.64 14.88L39.36 26.4M39.36 26.4L34.56 37.92M34.56 37.92L22.08 39.84M22.08 39.84L10.56 33.12M10.56 33.12L8.64 20.64M8.64 20.64L11.52 11.04M11.52 11.04L21.12 8.16"/>
      <path d="M20.16 20.64L28.8 27.36M20.16 20.64L21.12 8.16M20.16 20.64L8.64 20.64M28.8 27.36L34.56 37.92"/>
    </g>
    <g fill="var(--brand)">
      <circle cx="21.12" cy="8.16" r="3"/>
      <circle cx="32.64" cy="14.88" r="3"/>
      <circle cx="39.36" cy="26.4" r="3"/>
      <circle cx="34.56" cy="37.92" r="3"/>
      <circle cx="22.08" cy="39.84" r="3"/>
      <circle cx="10.56" cy="33.12" r="3"/>
      <circle cx="8.64" cy="20.64" r="3"/>
      <circle cx="11.52" cy="11.04" r="3"/>
      <circle cx="20.16" cy="20.64" r="3"/>
    </g>
    <circle cx="28.8" cy="27.36" r="4.2" fill="var(--accent)"/>
  </g>
  <text class="wordmark" x="57" y="24" dominant-baseline="central">REBRAPEV</text>
</svg>
